<svg xmlns="http://www.w3.org/2000/svg" viewBox="0 0 56.000 56.000" role="img" aria-label="Puheo">
  <title>puheo</title>
  <rect width="56.000" height="56.000" rx="8" fill="#A0341F"/>
  <path d="M128 -418V1118H423V930H437Q458 974 496.5 1021.0Q535 1068 598.0 1100.0Q661 1132 756 1132Q880 1132 983.0 1068.0Q1086 1004 1147.5 876.0Q1209 748 1209 557Q1209 371 1149.0 242.5Q1089 114 986.0 47.5Q883 -19 754 -19Q663 -19 600.0 12.0Q537 43 497.5 88.5Q458 134 437 179H428V-418ZM662 222Q740 222 793.5 265.0Q847 308 874.5 384.0Q902 460 902 558Q902 656 874.5 731.0Q847 806 794.0 849.0Q741 892 662 892Q585 892 531.0 850.5Q477 809 449.0 734.5Q421 660 421 558Q421 457 449.5 381.5Q478 306 532.0 264.0Q586 222 662 222Z" fill="#F5EDE0" transform="translate(12.383 48.000) scale(0.024194 -0.024194)"/>
</svg>
