<svg xmlns="http://www.w3.org/2000/svg" viewBox="0 0 156.831 64.000" role="img" aria-label="Puheo">
  <title>puheo</title>
  <path d="M128 -418V1118H423V930H437Q458 974 496.5 1021.0Q535 1068 598.0 1100.0Q661 1132 756 1132Q880 1132 983.0 1068.0Q1086 1004 1147.5 876.0Q1209 748 1209 557Q1209 371 1149.0 242.5Q1089 114 986.0 47.5Q883 -19 754 -19Q663 -19 600.0 12.0Q537 43 497.5 88.5Q458 134 437 179H428V-418ZM662 222Q740 222 793.5 265.0Q847 308 874.5 384.0Q902 460 902 558Q902 656 874.5 731.0Q847 806 794.0 849.0Q741 892 662 892Q585 892 531.0 850.5Q477 809 449.0 734.5Q421 660 421 558Q421 457 449.5 381.5Q478 306 532.0 264.0Q586 222 662 222Z" fill="#A0341F" transform="translate(2.000 48.000) scale(0.024194 -0.024194)"/>
  <path d="M513 -14Q397 -14 310.0 36.5Q223 87 175.5 181.5Q128 276 128 407V1118H428V459Q428 355 482.0 296.0Q536 237 630 237Q694 237 743.0 264.5Q792 292 819.5 344.5Q847 397 847 471V1118H1148V0H864L860 279H877Q833 138 742.5 62.0Q652 -14 513 -14Z" fill="#A0341F" transform="translate(33.234 48.000) scale(0.024194 -0.024194)"/>
  <path d="M428 647V0H128V1490H422V839H398Q442 979 531.5 1055.5Q621 1132 763 1132Q879 1132 965.5 1081.5Q1052 1031 1100.0 936.5Q1148 842 1148 711V0H847V659Q847 763 793.5 822.0Q740 881 645 881Q582 881 532.5 853.5Q483 826 455.5 774.0Q428 722 428 647Z" fill="#A0341F" transform="translate(64.081 48.000) scale(0.024194 -0.024194)"/>
  <path d="M633 -22Q462 -22 338.0 48.0Q214 118 147.5 247.0Q81 376 81 553Q81 726 147.0 856.0Q213 986 334.0 1059.0Q455 1132 618 1132Q728 1132 823.0 1097.0Q918 1062 990.0 991.5Q1062 921 1102.5 815.0Q1143 709 1143 565V481H204V669H996L856 619Q856 706 829.5 770.5Q803 835 750.5 870.5Q698 906 621 906Q543 906 488.5 870.0Q434 834 406.0 772.5Q378 711 378 632V499Q378 402 410.5 336.0Q443 270 501.5 237.0Q560 204 638 204Q691 204 734.0 219.0Q777 234 807.5 263.5Q838 293 854 336L1126 285Q1099 193 1032.0 123.5Q965 54 864.5 16.0Q764 -22 633 -22Z" fill="#A0341F" transform="translate(94.927 48.000) scale(0.024194 -0.024194)"/>
  <path d="M628 -22Q460 -22 337.0 50.5Q214 123 147.5 252.5Q81 382 81 554Q81 728 147.5 857.5Q214 987 337.0 1059.5Q460 1132 628 1132Q797 1132 919.5 1059.5Q1042 987 1108.5 857.5Q1175 728 1175 554Q1175 382 1108.5 252.5Q1042 123 919.5 50.5Q797 -22 628 -22ZM628 214Q708 214 762.0 258.5Q816 303 843.0 380.5Q870 458 870 555Q870 654 843.0 731.0Q816 808 762.0 852.0Q708 896 628 896Q548 896 494.5 852.0Q441 808 414.0 731.0Q387 654 387 555Q387 458 414.0 380.5Q441 303 494.5 258.5Q548 214 628 214Z" fill="#A0341F" transform="translate(124.444 48.000) scale(0.024194 -0.024194)"/>
  <rect x="138.637" y="31.573" width="4" height="4" rx="0.5" fill="#A0341F"/>
</svg>
