<svg viewBox="0 0 240 200" fill="none" xmlns="http://www.w3.org/2000/svg" role="img" aria-label="Polku kohti koepäivää: lippu mäen päällä">
  <ellipse cx="120" cy="170" rx="84" ry="14" fill="#FBEEC6"/>
  <!-- winding dashed path -->
  <path d="M44 168c28-6 30-34 60-38 30-4 36-40 72-44" fill="none" stroke="#D29E72" stroke-width="6" stroke-linecap="round" stroke-dasharray="2 16"/>
  <!-- start dot -->
  <circle cx="44" cy="168" r="9" fill="#9B2D2A"/>
  <!-- flag pole on hill -->
  <path d="M178 86v60" stroke="#241C15" stroke-width="4" stroke-linecap="round"/>
  <path d="M178 88h40l-10 12 10 12h-40Z" fill="#9B2D2A"/>
  <!-- valkoinen ylioppilaslakki lipussa (sama sivuprofiili) -->
  <g transform="translate(183 90) scale(0.1)">
    <ellipse cx="100" cy="74" rx="74" ry="30" fill="#FFFFFF" stroke="#241C15" stroke-width="9"/>
    <rect x="40" y="92" width="124" height="20" rx="10" fill="#241C15"/>
    <path d="M150 104C176 104 206 112 220 128C224 132 220 138 213 135C193 126 168 120 146 118Z" fill="#241C15"/>
    <circle cx="120" cy="102" r="9" fill="#F4C84A"/>
  </g>
  <!-- sparkle -->
  <path d="M150 60l4 11 11 4-11 4-4 11-4-11-11-4 11-4Z" fill="#F4C84A"/>
</svg>
