<svg viewBox="0 0 240 200" fill="none" xmlns="http://www.w3.org/2000/svg" role="img" aria-label="Polku kohti koepäivää: lippu mäen päällä">
  <ellipse cx="120" cy="170" rx="84" ry="14" fill="#FBEEC6"/>
  <!-- winding dashed path -->
  <path d="M44 168c28-6 30-34 60-38 30-4 36-40 72-44" fill="none" stroke="#D29E72" stroke-width="6" stroke-linecap="round" stroke-dasharray="2 16"/>
  <!-- start dot -->
  <circle cx="44" cy="168" r="9" fill="#9B2D2A"/>
  <!-- flag pole on hill -->
  <path d="M178 86v60" stroke="#241C15" stroke-width="4" stroke-linecap="round"/>
  <path d="M178 88h40l-10 12 10 12h-40Z" fill="#9B2D2A"/>
  <!-- valkoinen ylioppilaslakki lipussa (ei mortarboardia) -->
  <path d="M186 103C186 98 189 96 196 96C203 96 206 98 206 103C206 105 202 106 196 106C190 106 186 105 186 103Z" fill="#FFFFFF" stroke="#241C15" stroke-width="1.3" stroke-linejoin="round"/>
  <path d="M189 104C189 104 192 104 196 104C200 104 203 104 203 104V107C203 109 200 109 196 109C192 109 189 109 189 107Z" fill="#241C15"/>
  <circle cx="196" cy="106" r="1.4" fill="#F4C84A"/>
  <!-- sparkle -->
  <path d="M150 60l4 11 11 4-11 4-4 11-4-11-11-4 11-4Z" fill="#F4C84A"/>
</svg>
