<svg viewBox="0 0 240 200" fill="none" xmlns="http://www.w3.org/2000/svg" role="img" aria-label="Edistyminen alkaa pian: avoin kirja ja kasvava verso">
  <ellipse cx="120" cy="168" rx="78" ry="14" fill="#DCE8E0"/>
  <!-- open book -->
  <path d="M120 78c-22-14-50-14-66-6v74c16-8 44-8 66 6 22-14 50-14 66-6V72c-16-8-44-8-66 6Z" fill="#FFFFFF" stroke="#241C15" stroke-width="3" stroke-linejoin="round"/>
  <path d="M120 78v74" stroke="#241C15" stroke-width="3"/>
  <path d="M70 92c12-4 26-4 38 0M70 110c12-4 26-4 38 0" stroke="#E9DFCF" stroke-width="3" stroke-linecap="round"/>
  <path d="M132 92c12-4 26-4 38 0M132 110c12-4 26-4 38 0" stroke="#E9DFCF" stroke-width="3" stroke-linecap="round"/>
  <!-- sprout growing from the spine -->
  <path d="M120 78c0-14-2-26-2-26" stroke="#2E5E4E" stroke-width="3" stroke-linecap="round"/>
  <path d="M118 60c-10 2-16-4-16-12 9-1 16 4 16 12Z" fill="#2E5E4E"/>
  <path d="M118 66c8-2 14-9 13-17-8 0-14 8-13 17Z" fill="#2E5E4E"/>
  <!-- sparkle -->
  <path d="M170 52l5 13 13 5-13 5-5 13-5-13-13-5 13-5Z" fill="#F4C84A"/>
</svg>
