<svg viewBox="0 0 240 200" fill="none" xmlns="http://www.w3.org/2000/svg" role="img" aria-label="Polku kohti koepäivää: lippu mäen päällä">
  <ellipse cx="120" cy="170" rx="84" ry="14" fill="#FBEEC6"/>
  <!-- winding dashed path -->
  <path d="M44 168c28-6 30-34 60-38 30-4 36-40 72-44" fill="none" stroke="#D29E72" stroke-width="6" stroke-linecap="round" stroke-dasharray="2 16"/>
  <!-- start dot -->
  <circle cx="44" cy="168" r="9" fill="#9B2D2A"/>
  <!-- flag pole on hill -->
  <path d="M178 86v60" stroke="#241C15" stroke-width="4" stroke-linecap="round"/>
  <path d="M178 88h40l-10 12 10 12h-40Z" fill="#9B2D2A"/>
  <!-- valkoinen ylioppilaslakki lipussa (ei mortarboardia) -->
  <path d="M187 104C187 98 190 96 196 96C202 96 205 98 205 104Z" fill="#FFFFFF" stroke="#241C15" stroke-width="1.4" stroke-linejoin="round"/>
  <path d="M185 104H207V107Q207 108 206 108H186Q185 108 185 107Z" fill="#241C15"/>
  <circle cx="196" cy="105.5" r="1.5" fill="#F4C84A"/>
  <!-- sparkle -->
  <path d="M150 60l4 11 11 4-11 4-4 11-4-11-11-4 11-4Z" fill="#F4C84A"/>
</svg>
