<svg viewBox="0 0 320 280" fill="none" xmlns="http://www.w3.org/2000/svg" role="img" aria-label="Kolme kieltä lyhyenä oppimääränä: espanja, ranska ja saksa, ylioppilaslakki">
  <!-- soft backdrop -->
  <circle cx="160" cy="150" r="104" fill="#FBEEC6"/>

  <!-- three language speech bubbles fanned -->
  <g>
    <rect x="34" y="120" width="104" height="54" rx="22" fill="#FFFFFF" stroke="#241C15" stroke-width="3"/>
    <path d="M64 172l-5 22 24-16Z" fill="#FFFFFF" stroke="#241C15" stroke-width="3"/>
    <text x="86" y="155" font-family="Fredoka, sans-serif" font-weight="700" font-size="21" fill="#9B2D2A" text-anchor="middle">¡Hola!</text>
  </g>
  <g>
    <rect x="182" y="146" width="104" height="54" rx="22" fill="#2E5E4E"/>
    <path d="M256 198l6 22-24-15Z" fill="#2E5E4E"/>
    <text x="234" y="181" font-family="Fredoka, sans-serif" font-weight="700" font-size="21" fill="#FFFFFF" text-anchor="middle">Salut!</text>
  </g>
  <g>
    <rect x="106" y="190" width="104" height="54" rx="22" fill="#F4C84A" stroke="#241C15" stroke-width="3"/>
    <text x="158" y="225" font-family="Fredoka, sans-serif" font-weight="700" font-size="21" fill="#241C15" text-anchor="middle">Hallo!</text>
  </g>

  <!-- valkoinen ylioppilaslakki: valkoinen kupoli, musta nauha + lippa,
       kultainen lyyra-aksentti (ei mortarboardia) -->
  <g>
    <!-- crown / kupoli -->
    <path d="M104 92C104 56 126 44 160 44C194 44 216 56 216 92Z" fill="#FFFFFF" stroke="#241C15" stroke-width="3" stroke-linejoin="round"/>
    <!-- band / nauha -->
    <path d="M100 92H220V104C220 108 216 110 212 110H108C104 110 100 108 100 104Z" fill="#241C15"/>
    <!-- visor / lippa -->
    <path d="M124 110C140 126 180 126 196 110C180 118 140 118 124 110Z" fill="#241C15"/>
    <!-- gold lyre badge / lyyra -->
    <g stroke="#F4C84A" stroke-width="2.6" fill="none" stroke-linecap="round" stroke-linejoin="round">
      <path d="M152 106C148 98 151 90 160 90C169 90 172 98 168 106"/>
      <path d="M157 92V106M163 92V106"/>
      <path d="M154 92H166"/>
    </g>
    <circle cx="160" cy="108" r="2.6" fill="#F4C84A"/>
  </g>
</svg>
