<svg viewBox="0 0 320 280" fill="none" xmlns="http://www.w3.org/2000/svg" role="img" aria-label="Kolme kieltä lyhyenä oppimääränä: espanja, ranska ja saksa, ylioppilaslakki">
  <!-- soft backdrop -->
  <circle cx="160" cy="150" r="104" fill="#FBEEC6"/>

  <!-- three language speech bubbles fanned -->
  <g>
    <rect x="34" y="120" width="104" height="54" rx="22" fill="#FFFFFF" stroke="#241C15" stroke-width="3"/>
    <path d="M64 172l-5 22 24-16Z" fill="#FFFFFF" stroke="#241C15" stroke-width="3"/>
    <text x="86" y="155" font-family="Fredoka, sans-serif" font-weight="700" font-size="21" fill="#9B2D2A" text-anchor="middle">¡Hola!</text>
  </g>
  <g>
    <rect x="182" y="146" width="104" height="54" rx="22" fill="#2E5E4E"/>
    <path d="M256 198l6 22-24-15Z" fill="#2E5E4E"/>
    <text x="234" y="181" font-family="Fredoka, sans-serif" font-weight="700" font-size="21" fill="#FFFFFF" text-anchor="middle">Salut!</text>
  </g>
  <g>
    <rect x="106" y="190" width="104" height="54" rx="22" fill="#F4C84A" stroke="#241C15" stroke-width="3"/>
    <text x="158" y="225" font-family="Fredoka, sans-serif" font-weight="700" font-size="21" fill="#241C15" text-anchor="middle">Hallo!</text>
  </g>

  <!-- graduation cap (ylioppilaslakki) up top -->
  <g>
    <path d="M160 40l72 28-72 28-72-28Z" fill="#241C15"/>
    <path d="M160 76v26c20 0 38-7 38-15v-15" fill="none" stroke="#241C15" stroke-width="3"/>
    <path d="M122 81v16c0 9 17 16 38 16s38-7 38-16V81l-38 15Z" fill="#9B2D2A"/>
    <circle cx="232" cy="68" r="5" fill="#F4C84A"/>
    <path d="M232 68v22" stroke="#F4C84A" stroke-width="3"/>
    <path d="M232 90l-6 12h12Z" fill="#F4C84A"/>
  </g>
</svg>
