<svg viewBox="0 0 320 280" fill="none" xmlns="http://www.w3.org/2000/svg" role="img" aria-label="Kolme kieltä lyhyenä oppimääränä: espanja, ranska ja saksa, ylioppilaslakki">
  <!-- soft backdrop -->
  <circle cx="160" cy="150" r="104" fill="#FBEEC6"/>

  <!-- three language speech bubbles fanned -->
  <g>
    <rect x="34" y="120" width="104" height="54" rx="22" fill="#FFFFFF" stroke="#241C15" stroke-width="3"/>
    <path d="M64 172l-5 22 24-16Z" fill="#FFFFFF" stroke="#241C15" stroke-width="3"/>
    <text x="86" y="155" font-family="Fredoka, sans-serif" font-weight="700" font-size="21" fill="#9B2D2A" text-anchor="middle">¡Hola!</text>
  </g>
  <g>
    <rect x="182" y="146" width="104" height="54" rx="22" fill="#2E5E4E"/>
    <path d="M256 198l6 22-24-15Z" fill="#2E5E4E"/>
    <text x="234" y="181" font-family="Fredoka, sans-serif" font-weight="700" font-size="21" fill="#FFFFFF" text-anchor="middle">Salut!</text>
  </g>
  <g>
    <rect x="106" y="190" width="104" height="54" rx="22" fill="#F4C84A" stroke="#241C15" stroke-width="3"/>
    <text x="158" y="225" font-family="Fredoka, sans-serif" font-weight="700" font-size="21" fill="#241C15" text-anchor="middle">Hallo!</text>
  </g>

  <!-- valkoinen ylioppilaslakki, sivuprofiili: leveä matala valkoinen kupoli,
       musta nauha, musta kiiltävä lippa eteen, pyöreä kultainen kokardi -->
  <g transform="translate(56 -6)">
    <!-- crown -->
    <ellipse cx="100" cy="74" rx="74" ry="30" fill="#FFFFFF" stroke="#241C15" stroke-width="4"/>
    <!-- band -->
    <rect x="40" y="92" width="124" height="20" rx="10" fill="#241C15"/>
    <!-- visor / lippa -->
    <path d="M150 104C176 104 206 112 220 128C224 132 220 138 213 135C193 126 168 120 146 118Z" fill="#241C15"/>
    <!-- gold cockade -->
    <circle cx="120" cy="102" r="6" fill="#F4C84A" stroke="#241C15" stroke-width="1.4"/>
    <circle cx="120" cy="102" r="2.2" fill="#9B2D2A"/>
  </g>
</svg>
