<svg viewBox="0 0 320 280" fill="none" xmlns="http://www.w3.org/2000/svg" role="img" aria-label="Tekoäly arvioi kirjoitelman heti ja antaa pistemäärän">
  <!-- written text card -->
  <rect x="40" y="56" width="172" height="168" rx="18" fill="#FFFFFF" stroke="#241C15" stroke-width="3"/>
  <rect x="60" y="80" width="132" height="9" rx="4.5" fill="#E9DFCF"/>
  <rect x="60" y="100" width="120" height="9" rx="4.5" fill="#E9DFCF"/>
  <!-- corrected span (was wrong → now ok) -->
  <rect x="60" y="120" width="56" height="9" rx="4.5" fill="#F4DAD3"/>
  <rect x="124" y="120" width="56" height="9" rx="4.5" fill="#E9DFCF"/>
  <rect x="60" y="140" width="108" height="9" rx="4.5" fill="#E9DFCF"/>
  <rect x="60" y="160" width="132" height="9" rx="4.5" fill="#E9DFCF"/>
  <rect x="60" y="180" width="84" height="9" rx="4.5" fill="#E9DFCF"/>

  <!-- score badge popping out, top-right -->
  <g>
    <circle cx="236" cy="84" r="44" fill="#2E5E4E"/>
    <text x="236" y="82" font-family="Fredoka, sans-serif" font-weight="700" font-size="34" fill="#FFFFFF" text-anchor="middle">29</text>
    <text x="236" y="104" font-family="Mulish, sans-serif" font-weight="700" font-size="13" fill="#DCE8E0" text-anchor="middle">/ 33</text>
  </g>
  <!-- sparkle on the badge -->
  <path d="M276 52l5 13 13 5-13 5-5 13-5-13-13-5 13-5Z" fill="#F4C84A"/>

  <!-- AI check chip bottom-right -->
  <g>
    <rect x="190" y="176" width="96" height="48" rx="24" fill="#9B2D2A"/>
    <circle cx="216" cy="200" r="13" fill="#FFFFFF"/>
    <path d="M210 200l4 4 8-9" stroke="#9B2D2A" stroke-width="3" fill="none" stroke-linecap="round" stroke-linejoin="round"/>
    <text x="252" y="205" font-family="Fredoka, sans-serif" font-weight="700" font-size="15" fill="#FFFFFF" text-anchor="middle">heti</text>
  </g>
</svg>
