<svg viewBox="0 0 320 280" fill="none" xmlns="http://www.w3.org/2000/svg" role="img" aria-label="Kolme kieltä lyhyenä oppimääränä: espanja, ranska ja saksa, ylioppilaslakki">
  <!-- soft backdrop -->
  <circle cx="160" cy="150" r="104" fill="#FBEEC6"/>

  <!-- three language speech bubbles fanned -->
  <g>
    <rect x="34" y="120" width="104" height="54" rx="22" fill="#FFFFFF" stroke="#241C15" stroke-width="3"/>
    <path d="M64 172l-5 22 24-16Z" fill="#FFFFFF" stroke="#241C15" stroke-width="3"/>
    <text x="86" y="155" font-family="Fredoka, sans-serif" font-weight="700" font-size="21" fill="#9B2D2A" text-anchor="middle">¡Hola!</text>
  </g>
  <g>
    <rect x="182" y="146" width="104" height="54" rx="22" fill="#2E5E4E"/>
    <path d="M256 198l6 22-24-15Z" fill="#2E5E4E"/>
    <text x="234" y="181" font-family="Fredoka, sans-serif" font-weight="700" font-size="21" fill="#FFFFFF" text-anchor="middle">Salut!</text>
  </g>
  <g>
    <rect x="106" y="190" width="104" height="54" rx="22" fill="#F4C84A" stroke="#241C15" stroke-width="3"/>
    <text x="158" y="225" font-family="Fredoka, sans-serif" font-weight="700" font-size="21" fill="#241C15" text-anchor="middle">Hallo!</text>
  </g>

  <!-- valkoinen ylioppilaslakki: leveä valkoinen kupoli, musta nauha,
       musta kiiltävä lippa eteen, pyöreä kultainen kokardi (ei mortarboardia) -->
  <g>
    <!-- white crown: wide puffy top overhanging the band -->
    <path d="M92 90C92 62 118 50 160 50C202 50 228 62 228 90C228 99 201 104 160 104C119 104 92 99 92 90Z" fill="#FFFFFF" stroke="#241C15" stroke-width="3" stroke-linejoin="round"/>
    <!-- black band, narrower than the crown -->
    <path d="M110 100C110 98 132 97 160 97C188 97 210 98 210 100V110C210 117 188 121 160 121C132 121 110 117 110 110Z" fill="#241C15"/>
    <!-- black glossy visor projecting forward -->
    <path d="M124 118C140 139 180 139 196 118C198 130 180 138 160 138C140 138 126 130 124 118Z" fill="#241C15"/>
    <!-- round gold cockade / kokardi -->
    <circle cx="160" cy="109" r="5.6" fill="#F4C84A" stroke="#241C15" stroke-width="1.3"/>
    <circle cx="160" cy="109" r="2" fill="#9B2D2A"/>
  </g>
</svg>
