<svg viewBox="0 0 520 520" fill="none" xmlns="http://www.w3.org/2000/svg" role="img" aria-label="Käsi pitelee puhelinta jossa tekoäly arvioi kirjoitelman; espanja, ranska ja saksa">
  <!-- soft backdrop blob behind phone -->
  <circle cx="262" cy="244" r="166" fill="#DCE8E0"/>

  <!-- ES bubble, top-left -->
  <g>
    <rect x="24" y="116" width="120" height="58" rx="24" fill="#FFFFFF" stroke="#241C15" stroke-width="3"/>
    <path d="M58 172l-5 24 26-17Z" fill="#FFFFFF" stroke="#241C15" stroke-width="3"/>
    <text x="84" y="153" font-family="Fredoka, sans-serif" font-weight="700" font-size="23" fill="#9B2D2A" text-anchor="middle">¡Hola!</text>
  </g>
  <!-- FR bubble, top-right -->
  <g>
    <rect x="372" y="92" width="120" height="58" rx="24" fill="#FFFFFF" stroke="#241C15" stroke-width="3"/>
    <path d="M454 148l9 23-27-15Z" fill="#FFFFFF" stroke="#241C15" stroke-width="3"/>
    <text x="432" y="129" font-family="Fredoka, sans-serif" font-weight="700" font-size="23" fill="#2E5E4E" text-anchor="middle">Salut!</text>
  </g>
  <!-- DE bubble, mid-right -->
  <g>
    <rect x="378" y="298" width="118" height="58" rx="24" fill="#F4C84A" stroke="#241C15" stroke-width="3"/>
    <path d="M406 354l-7 23 23-15Z" fill="#F4C84A" stroke="#241C15" stroke-width="3"/>
    <text x="437" y="335" font-family="Fredoka, sans-serif" font-weight="700" font-size="23" fill="#241C15" text-anchor="middle">Hallo!</text>
  </g>

  <!-- sparkles -->
  <path d="M150 92l7 18 18 7-18 7-7 18-7-18-18-7 18-7Z" fill="#F4C84A"/>
  <path d="M364 196l5 13 13 5-13 5-5 13-5-13-13-5 13-5Z" fill="#9B2D2A"/>

  <!-- phone -->
  <g transform="rotate(-3 262 270)">
    <rect x="182" y="118" width="180" height="304" rx="36" fill="#241C15"/>
    <rect x="194" y="130" width="156" height="280" rx="26" fill="#FBF7EF"/>
    <!-- header line -->
    <rect x="210" y="154" width="88" height="14" rx="7" fill="#E9DFCF"/>
    <!-- grade card -->
    <rect x="210" y="186" width="124" height="122" rx="20" fill="#FFFFFF" stroke="#E9DFCF" stroke-width="2"/>
    <text x="226" y="240" font-family="Fredoka, sans-serif" font-weight="700" font-size="44" fill="#9B2D2A">27</text>
    <text x="280" y="240" font-family="Mulish, sans-serif" font-weight="700" font-size="15" fill="#5C5145">/33 p</text>
    <!-- approval check, not a YO grade letter: a single writing task is scored
         in points, never a letter (the letter comes from the whole exam). -->
    <circle cx="318" cy="204" r="13" fill="#2E5E4E"/>
    <path d="M312 204l4 4 8-9" stroke="#FFFFFF" stroke-width="3" fill="none" stroke-linecap="round" stroke-linejoin="round"/>
    <rect x="226" y="264" width="92" height="9" rx="4.5" fill="#DCE8E0"/>
    <rect x="226" y="264" width="74" height="9" rx="4.5" fill="#2E5E4E"/>
    <rect x="226" y="282" width="92" height="9" rx="4.5" fill="#FBEEC6"/>
    <rect x="226" y="282" width="54" height="9" rx="4.5" fill="#F4C84A"/>
    <!-- CTA bar -->
    <rect x="210" y="326" width="124" height="36" rx="18" fill="#9B2D2A"/>
    <rect x="244" y="341" width="56" height="6" rx="3" fill="#FFFFFF" opacity=".9"/>
  </g>

  <!-- hand: wrist + palm + thumb wrapping front, with finger separation lines -->
  <g>
    <path d="M208 452h108c6 26 2 56-17 66H225c-19-10-23-40-17-66Z" fill="#D29E72"/>
    <ellipse cx="262" cy="444" rx="96" ry="42" fill="#E7B58C"/>
    <!-- thumb wrapping over phone front-left -->
    <path d="M212 430c-6-31-2-68 2-88 3-15 25-13 25 3-1 23-1 47 1 66Z" fill="#E7B58C"/>
    <path d="M212 430c-6-31-2-68 2-88" stroke="#D29E72" stroke-width="3" fill="none" opacity=".6"/>
    <!-- finger separation lines on the palm so it reads as a hand, not a mitten -->
    <path d="M246 420c2 14 2 28 0 42" stroke="#D29E72" stroke-width="3" fill="none" opacity=".55" stroke-linecap="round"/>
    <path d="M278 418c2 14 2 30 0 44" stroke="#D29E72" stroke-width="3" fill="none" opacity=".55" stroke-linecap="round"/>
    <path d="M310 422c1 13 1 26 -1 38" stroke="#D29E72" stroke-width="3" fill="none" opacity=".55" stroke-linecap="round"/>
  </g>
</svg>
